<svg xmlns="http://www.w3.org/2000/svg" id="Layer_1" viewBox="0 0 311 162"><path d="M32.79,96c-3.09,0-5.57-.97-7.44-2.9s-2.81-4.63-2.81-8.08.91-6.12,2.72-8.06,4.19-2.92,7.11-2.92,5.39.96,7.17,2.87,2.68,4.62,2.68,8.11v.89h-15.81c.16,2.43.83,4.23,2.01,5.4s2.64,1.76,4.36,1.76c1.31,0,2.48-.33,3.53-1s1.6-1.61,1.65-2.84h3.86c-.29,2.16-1.27,3.83-2.94,5.01s-3.7,1.76-6.1,1.76ZM38.29,82.98c-.3-2.02-.98-3.53-2.04-4.53s-2.35-1.5-3.88-1.5-2.77.5-3.84,1.49-1.75,2.51-2.04,4.54h11.79Z"></path><path d="M59.05,96c-4.1,0-7.38-1.35-9.83-4.05s-3.67-6.35-3.67-10.95,1.22-8.26,3.67-10.95,5.72-4.05,9.83-4.05c3.15,0,5.84.85,8.05,2.55s3.46,3.94,3.74,6.73h-3.96c-.16-1.83-.95-3.29-2.38-4.37s-3.24-1.62-5.41-1.62c-2.94,0-5.27,1.01-6.99,3.04s-2.57,4.92-2.57,8.68.85,6.64,2.55,8.67,4.01,3.05,6.93,3.05c2.27,0,4.1-.55,5.5-1.66s2.19-2.69,2.37-4.75h3.96c-.28,3.09-1.49,5.47-3.64,7.16s-4.87,2.53-8.15,2.53Z"></path><path d="M79.41,95.51h-3.74v-29.01h3.74v29.01Z"></path><path d="M88.65,70.53h-3.74v-4.04h3.74v4.04ZM88.65,95.51h-3.74v-21h3.74v21Z"></path><path d="M97.89,77.18c1.86-2.1,3.95-3.15,6.27-3.15,4.74,0,7.1,2.58,7.1,7.74v13.73h-3.74v-13.58c0-1.72-.31-2.95-.92-3.7s-1.62-1.13-3.02-1.13c-1.9,0-3.8,1.12-5.7,3.36v15.04h-3.74v-21h3.74v2.67Z"></path><path d="M120.43,70.53h-3.74v-4.04h3.74v4.04ZM120.43,95.51h-3.74v-21h3.74v21Z"></path><path d="M134.44,96c-2.98,0-5.37-.96-7.15-2.88s-2.68-4.62-2.68-8.1.89-6.2,2.68-8.11,4.17-2.87,7.15-2.87c2.3,0,4.21.58,5.75,1.74s2.44,2.84,2.72,5.03h-3.84c-.05-1.25-.52-2.21-1.41-2.87s-1.96-.99-3.22-.99c-1.78,0-3.23.68-4.33,2.03s-1.66,3.37-1.66,6.05.55,4.67,1.66,6.03,2.55,2.03,4.33,2.03c1.25,0,2.33-.33,3.22-.99s1.36-1.61,1.41-2.85h3.84c-.28,2.19-1.18,3.87-2.72,5.03s-3.45,1.74-5.75,1.74Z"></path><path d="M159.5,93.35c-1.9,1.77-4.35,2.65-7.34,2.65-2.08,0-3.8-.56-5.15-1.69s-2.02-2.58-2.02-4.36c0-4.91,4.23-7.36,12.68-7.36h1.82c0-1.5-.08-2.6-.24-3.28s-.6-1.24-1.33-1.69-1.88-.67-3.46-.67c-3.32,0-5.04,1.19-5.15,3.56h-3.72c.28-4.31,3.3-6.47,9.06-6.47,2.69,0,4.79.53,6.29,1.6s2.26,3.17,2.26,6.29v13.58h-3.72v-2.16ZM159.5,89.98v-4.65h-2.55c-5.41,0-8.11,1.47-8.11,4.41,0,1.07.4,1.89,1.19,2.46s1.86.86,3.21.86c1.23,0,2.41-.28,3.56-.83s2.05-1.31,2.71-2.26Z"></path><path d="M172.48,95.51h-3.74v-29.01h3.74v29.01Z"></path><path d="M213.09,66.49l-8.03,29.01h-3.68l-6.97-25.21-6.99,25.21h-3.68l-8.01-29.01h4.04l5.8,23.63,6.53-23.63h4.61l6.53,23.63,5.8-23.63h4.06Z"></path><path d="M224.74,74.03c2.99,0,5.39.96,7.17,2.87s2.68,4.62,2.68,8.11-.89,6.18-2.68,8.1-4.18,2.88-7.17,2.88-5.37-.96-7.15-2.88-2.68-4.62-2.68-8.1.89-6.2,2.68-8.11,4.17-2.87,7.15-2.87ZM224.74,93.07c1.78,0,3.23-.68,4.33-2.03s1.66-3.36,1.66-6.03-.55-4.69-1.66-6.05-2.55-2.03-4.33-2.03-3.23.68-4.33,2.03-1.66,3.37-1.66,6.05.55,4.67,1.66,6.03,2.55,2.03,4.33,2.03Z"></path><path d="M249.68,77.91c-.53-.16-1.29-.24-2.28-.24-1.9,0-3.53,1-4.89,2.99v14.84h-3.74v-21h3.74v2.93c1.57-2.27,3.39-3.4,5.46-3.4.53,0,1.09.05,1.7.16v3.72Z"></path><path d="M269.62,95.51h-4.45l-6.83-10.67-2.34,2.32v8.35h-3.74v-29.01h3.74v16.44l8.09-8.43h4.71l-7.96,7.82,8.77,13.18Z"></path><path d="M280.03,96c-5.74,0-8.74-2.26-9-6.77h3.74c.03,2.56,1.77,3.84,5.22,3.84,1.54,0,2.72-.32,3.53-.96s1.22-1.44,1.22-2.4-.4-1.62-1.19-2.01-2.42-.89-4.9-1.51-4.28-1.31-5.42-2.08-1.71-2.11-1.71-4.04c0-1.74.71-3.18,2.13-4.32s3.31-1.71,5.69-1.71c5.5,0,8.31,1.96,8.43,5.88h-3.72c-.13-1.98-1.62-2.97-4.45-2.97-1.25,0-2.29.24-3.12.71s-1.24,1.17-1.24,2.08c0,.82.32,1.41.95,1.77s2.22.85,4.76,1.46,4.43,1.33,5.66,2.15,1.85,2.23,1.85,4.23-.76,3.5-2.29,4.76-3.57,1.89-6.14,1.89Z"></path></svg>