<svg xmlns="http://www.w3.org/2000/svg" id="Layer_1" data-name="Layer 1" viewBox="0 0 116 27"><path d="M17.82,12.87H28.23a.39.39,0,0,0,.21-.06.35.35,0,0,0,.15-.17.34.34,0,0,0,0-.22.31.31,0,0,0-.11-.2L26.18,10A.42.42,0,0,0,26,9.87a.3.3,0,0,0-.16,0h-.19l-6.27.59L23.1,7.57a.33.33,0,0,0,.11-.13.43.43,0,0,0,.05-.16.5.5,0,0,0,0-.16A.38.38,0,0,0,23.14,7l-1.7-1.64a.3.3,0,0,0-.13-.09.33.33,0,0,0-.17,0,.28.28,0,0,0-.15,0,.32.32,0,0,0-.13.1L17.91,9l.59-6.11,0-.18a.44.44,0,0,0,0-.16.33.33,0,0,0-.1-.14L16.09.11a.35.35,0,0,0-.2-.1.36.36,0,0,0-.23,0,.39.39,0,0,0-.17.14.33.33,0,0,0-.07.21V10.53Z" transform="translate(0 0)"></path><path d="M.39,12.87H10.8l2.4-2.33V.38a.4.4,0,0,0-.07-.21A.39.39,0,0,0,13,0a.37.37,0,0,0-.23,0,.35.35,0,0,0-.2.1L10.21,2.37a.45.45,0,0,0-.1.14.32.32,0,0,0,0,.17v.18L10.69,9,7.75,5.38a.69.69,0,0,0-.13-.11.47.47,0,0,0-.16,0,.51.51,0,0,0-.17,0,.42.42,0,0,0-.14.09L5.48,7a.3.3,0,0,0-.09.13.45.45,0,0,0,0,.16.43.43,0,0,0,0,.16.29.29,0,0,0,.1.12L9.2,10.45,2.93,9.86H2.74a.3.3,0,0,0-.16,0,.38.38,0,0,0-.15.09L.11,12.22a.35.35,0,0,0-.1.2.34.34,0,0,0,0,.22.39.39,0,0,0,.14.17A.43.43,0,0,0,.39,12.87Z" transform="translate(0 0)"></path><path d="M28.25,15H.49a.36.36,0,0,0-.22.07.39.39,0,0,0-.14.17.42.42,0,0,0,0,.22.56.56,0,0,0,.11.2L2.52,18a.38.38,0,0,0,.15.09.3.3,0,0,0,.16,0H3l10.3-1-.7,9.24a.44.44,0,0,0,0,.16.38.38,0,0,0,.09.13.3.3,0,0,0,.13.09.4.4,0,0,0,.15,0h2.42a.37.37,0,0,0,.15,0,.42.42,0,0,0,.14-.09.57.57,0,0,0,.08-.13.44.44,0,0,0,0-.16l-.7-9.24,10.6,1h.19a.33.33,0,0,0,.17,0,.42.42,0,0,0,.14-.09l2.31-2.25a.4.4,0,0,0,.11-.2.34.34,0,0,0,0-.22.35.35,0,0,0-.15-.17A.34.34,0,0,0,28.25,15Z" transform="translate(0 0)"></path><path d="M62.36,10.85a8.67,8.67,0,0,0-4-1.5,9.62,9.62,0,0,0-5.52.82,7.52,7.52,0,0,0-3.69,3.89,9.71,9.71,0,0,0-.74,3.65,10.52,10.52,0,0,0,.74,4.48,7.49,7.49,0,0,0,3.07,3.56,9.61,9.61,0,0,0,6.54,1.1,8.88,8.88,0,0,0,4.53-2.06,7.27,7.27,0,0,0,1.85-2.54.15.15,0,0,0,0-.09.12.12,0,0,0,0-.09A.23.23,0,0,0,65,22a.18.18,0,0,0-.1,0h-3.3a.16.16,0,0,0-.1,0,.13.13,0,0,0-.07.06,4.6,4.6,0,0,1-1,1,6,6,0,0,1-3.54,1.09,5.13,5.13,0,0,1-3.11-.95,4.64,4.64,0,0,1-1.71-2.4c-.1-.32-.17-.65-.25-1v-.1a.2.2,0,0,1,0-.08.16.16,0,0,1,.08-.06l.09,0H65.36a.24.24,0,0,0,.14-.05.17.17,0,0,0,.07-.13,10.32,10.32,0,0,0-.7-5.36A7.45,7.45,0,0,0,62.36,10.85Zm-.53,5.93h-9.6a.12.12,0,0,1-.09,0l-.08-.05a.2.2,0,0,1,0-.08.28.28,0,0,1,0-.09,4.72,4.72,0,0,1,4.48-4.12c3.07-.19,5.07,1.47,5.55,4.11v.1a.35.35,0,0,1,0,.08.18.18,0,0,1-.07.05A.16.16,0,0,1,61.83,16.78Z" transform="translate(0 0)"></path><path d="M97.56,9.53c-2.53,0-4.54.91-5.7,3.25v0L91.47,10a.19.19,0,0,0-.07-.12.2.2,0,0,0-.14-.06H88.37l-.08,0-.07,0a.16.16,0,0,0,0,.07.24.24,0,0,0,0,.08V26.53a.19.19,0,0,0,0,.08.16.16,0,0,0,0,.07l.07.05h3.36a.21.21,0,0,0,.21-.21V18.69a9.47,9.47,0,0,1,.53-2.93,4.84,4.84,0,0,1,1.28-2,4.86,4.86,0,0,1,2.68-1.11c.41-.06.82-.08,1.23-.11a.21.21,0,0,0,.14-.07.2.2,0,0,0,.06-.14V9.74a.12.12,0,0,0,0-.08.16.16,0,0,0,0-.07l-.07,0Z" transform="translate(0 0)"></path><path d="M41.92,26.61a.36.36,0,0,0,.15.1.47.47,0,0,0,.17,0h4.47a.26.26,0,0,0,.19-.07.29.29,0,0,0,.07-.18V23.82a.29.29,0,0,0-.07-.18.26.26,0,0,0-.19-.07H43.12a.33.33,0,0,1-.21-.09.31.31,0,0,1-.09-.2V12.15h3.6a.26.26,0,0,0,.18-.07.25.25,0,0,0,.08-.18V9.23a.25.25,0,0,0-.08-.18A.27.27,0,0,0,46.42,9h-3.6V4a.27.27,0,0,0,0-.12.2.2,0,0,0-.09-.09.2.2,0,0,0-.13,0,.31.31,0,0,0-.13,0l-2.87,1.3a.24.24,0,0,0-.11.09.22.22,0,0,0,0,.13V9H38.05a.23.23,0,0,0-.18.08.25.25,0,0,0-.08.18V11.9a.25.25,0,0,0,.08.18.23.23,0,0,0,.18.07h1.37V24a.4.4,0,0,0,.13.31Z" transform="translate(0 0)"></path><path d="M81.84,10.64a8.43,8.43,0,0,0-4.24-1A6.71,6.71,0,0,0,72,12.31L71.5,4.13a.28.28,0,0,0,0-.13.39.39,0,0,0-.1-.08.28.28,0,0,0-.13,0l-.12,0L68.44,5.2a.28.28,0,0,0-.1.09.28.28,0,0,0,0,.13V26.49a.24.24,0,0,0,.07.18.26.26,0,0,0,.19.07h2.71a.27.27,0,0,0,.17-.06.26.26,0,0,0,.09-.15l.4-2.24a6.12,6.12,0,0,0,2.31,1.94,7.36,7.36,0,0,0,3.36.71,8.18,8.18,0,0,0,4.24-1.09,7.61,7.61,0,0,0,2.92-3.06,9.45,9.45,0,0,0,1-4.52,9.62,9.62,0,0,0-1-4.63A7.3,7.3,0,0,0,81.84,10.64ZM80.57,22.78a4.75,4.75,0,0,1-3.81,1.7A4.7,4.7,0,0,1,73,22.77a6.7,6.7,0,0,1-1.44-4.44A6.46,6.46,0,0,1,73,14a5.11,5.11,0,0,1,7.59,0A6.48,6.48,0,0,1,82,18.36,6.54,6.54,0,0,1,80.57,22.78Z" transform="translate(0 0)"></path><path d="M115.74,9.84H113a.27.27,0,0,0-.17.06.24.24,0,0,0-.09.15l-.4,2.27a6.09,6.09,0,0,0-2.3-2,7.5,7.5,0,0,0-3.36-.71,8.19,8.19,0,0,0-4.19,1.08,7.56,7.56,0,0,0-2.93,3,9.37,9.37,0,0,0-1.07,4.54,9.61,9.61,0,0,0,1,4.6,7.27,7.27,0,0,0,2.91,3,8.69,8.69,0,0,0,4.23,1,6.76,6.76,0,0,0,5.66-2.77l.37,2.36a.26.26,0,0,0,.26.21h2.73a.26.26,0,0,0,.26-.25V10.09a.23.23,0,0,0-.08-.17A.23.23,0,0,0,115.74,9.84Zm-4.66,12.93a5.08,5.08,0,0,1-7.59,0A6.53,6.53,0,0,1,102,18.37,6.48,6.48,0,0,1,103.49,14a5.11,5.11,0,0,1,7.59,0,6.46,6.46,0,0,1,1.44,4.36A6.7,6.7,0,0,1,111.08,22.77Z" transform="translate(0 0)"></path></svg>