<svg xmlns="http://www.w3.org/2000/svg" xmlns:xlink="http://www.w3.org/1999/xlink" id="Layer_1" x="0px" y="0px" viewBox="0 0 376 36" style="enable-background:new 0 0 376 36;" xml:space="preserve"><path d="M60.5,4.1h-3v4.5h-2.4v2.5h2.4v10.6c0,1.7,0.4,3,1.2,3.8c0.8,0.8,2.1,1.2,3.7,1.2h2.7V24H63c-0.9,0-1.6-0.2-2-0.5 c-0.4-0.4-0.6-1-0.6-1.9V11h4.7V8.6h-4.7L60.5,4.1z"></path><path d="M79.8,9.1c-1.1-0.6-2.3-0.9-3.7-0.9S73.6,8.5,72.6,9c-1.1,0.5-1.9,1.2-2.4,2.1V2.3h-3v24.3h3v-9.9c0-1.9,0.5-3.3,1.4-4.3 c0.9-1,2.2-1.5,3.8-1.5s2.8,0.5,3.7,1.4c0.9,1,1.3,2.3,1.3,4.1v10.2h3V16c0-1.7-0.3-3.1-0.9-4.3C81.8,10.6,80.9,9.7,79.8,9.1z"></path><path d="M99,9.4c-1.3-0.8-2.8-1.1-4.5-1.1c-1.7,0-3.3,0.4-4.7,1.2c-1.3,0.8-2.4,1.8-3.2,3.2c-0.8,1.4-1.1,3-1.1,4.9 c0,1.9,0.4,3.5,1.2,4.9c0.8,1.4,1.8,2.5,3.2,3.3c1.3,0.8,2.9,1.2,4.6,1.2c2.1,0,4-0.5,5.4-1.6c1.5-1.1,2.4-2.5,2.9-4.2h-3.2 c-0.4,1-1,1.8-1.8,2.4c-0.8,0.6-2,0.9-3.2,0.9c-1.6,0-2.9-0.5-4-1.5c-1.1-1-1.7-2.4-1.8-4.2h14.4c0-0.6,0.1-1.2,0.1-1.8 c0-1.6-0.4-3.1-1.1-4.4C101.3,11.2,100.2,10.1,99,9.4z M88.6,16.3c0.2-1.7,0.8-3.1,1.8-4c1.1-1,2.4-1.5,3.9-1.5c1.1,0,2,0.2,2.9,0.6 c0.9,0.4,1.6,1.1,2,1.9c0.5,0.8,0.8,1.8,0.8,2.9L88.6,16.3z"></path><path d="M108.4,11.5V8.6h-3v18h3v-9.8c0-3.6,1.7-5.4,5-5.4h0.8V8.2c-1.4,0-2.6,0.3-3.6,0.8C109.6,9.7,108.9,10.5,108.4,11.5z"></path><path d="M130.2,11.9c-0.6-1-1.4-1.9-2.6-2.6c-1.2-0.7-2.5-1-4.1-1c-1.6,0-3.1,0.4-4.4,1.2c-1.3,0.8-2.3,1.9-3.1,3.2 c-0.8,1.4-1.1,3-1.1,4.8c0,1.8,0.4,3.5,1.1,4.9c0.8,1.4,1.8,2.5,3.1,3.3c1.3,0.8,2.8,1.2,4.4,1.2c1.6,0,2.9-0.4,4.1-1 c1.2-0.7,2-1.6,2.7-2.6v3.4h3v-18h-3V11.9z M129.3,21.1c-0.5,1-1.3,1.8-2.2,2.3c-0.9,0.5-2,0.8-3.1,0.8s-2.1-0.3-3.1-0.8 c-0.9-0.5-1.6-1.3-2.2-2.3c-0.5-1-0.8-2.2-0.8-3.6c0-1.4,0.3-2.5,0.8-3.5c0.5-1,1.3-1.8,2.2-2.3c0.9-0.5,2-0.8,3.1-0.8 s2.1,0.3,3.1,0.8c0.9,0.5,1.7,1.3,2.2,2.3c0.5,1,0.8,2.2,0.8,3.5C130.2,18.9,129.9,20.1,129.3,21.1z"></path><path d="M150.7,9.4c-1.3-0.8-2.8-1.2-4.4-1.2s-2.9,0.4-4.1,1c-1.2,0.7-2,1.6-2.7,2.6V8.6h-3v26.5h3V23.2c0.6,1,1.5,1.9,2.7,2.6 c1.2,0.7,2.5,1,4,1s3.1-0.4,4.4-1.2c1.3-0.8,2.3-1.9,3.1-3.3c0.8-1.4,1.1-3.1,1.1-4.9c0-1.8-0.4-3.5-1.1-4.8 C153,11.2,152,10.2,150.7,9.4z M151,21.1c-0.5,1-1.3,1.8-2.2,2.3c-0.9,0.5-2,0.8-3.1,0.8c-1.1,0-2.1-0.3-3.1-0.8 c-0.9-0.5-1.7-1.3-2.2-2.3c-0.5-1-0.8-2.2-0.8-3.5c0-1.3,0.3-2.5,0.8-3.5c0.6-1,1.3-1.8,2.2-2.3c0.9-0.5,2-0.8,3.1-0.8 c1.1,0,2.1,0.3,3.1,0.8c0.9,0.5,1.7,1.3,2.2,2.3c0.5,1,0.8,2.2,0.8,3.5C151.9,18.9,151.6,20.1,151,21.1z"></path><path d="M169.7,8.6l-5.6,14.6l-5.6-14.6h-3.3l7.3,17.8l-3.6,8.7h3.1l10.9-26.4H169.7z"></path><path d="M187,11c-0.6-0.8-1.4-1.5-2.4-2.1c-1-0.5-2.2-0.8-3.6-0.8c-1.6,0-3,0.4-4.2,1.2c-1.2,0.8-2.3,1.9-3,3.3 c-0.8,1.4-1.1,3.1-1.1,4.9s0.4,3.5,1.1,5c0.7,1.4,1.7,2.5,3,3.3c1.2,0.8,2.7,1.2,4.2,1.2c1.4,0,2.6-0.3,3.6-0.8 c1-0.6,1.9-1.2,2.4-2.1v2.7h4.7V8.4H187V11z M186.4,20.3c-0.4,0.8-1,1.4-1.8,1.9c-0.8,0.4-1.6,0.6-2.4,0.6c-0.8,0-1.6-0.2-2.4-0.7 c-0.7-0.4-1.3-1.1-1.8-1.9c-0.4-0.8-0.7-1.8-0.7-2.9c0-1.1,0.2-2,0.7-2.8c0.4-0.8,1-1.4,1.8-1.8c0.7-0.4,1.5-0.6,2.4-0.6 c0.8,0,1.6,0.2,2.4,0.6c0.8,0.4,1.3,1,1.8,1.9c0.4,0.8,0.7,1.8,0.7,2.9S186.8,19.5,186.4,20.3z"></path><path d="M209.4,9.3c-1.2-0.8-2.7-1.2-4.2-1.2c-1.3,0-2.5,0.3-3.6,0.8c-1,0.6-1.9,1.2-2.4,2.1V8.4h-4.6v26.8h4.6V24 c0.6,0.8,1.5,1.5,2.5,2.1c1,0.5,2.2,0.8,3.6,0.8c1.6,0,3-0.4,4.2-1.2c1.2-0.8,2.3-1.9,3-3.3c0.7-1.4,1.1-3.1,1.1-5 c0-1.9-0.4-3.5-1.1-4.9C211.7,11.1,210.6,10,209.4,9.3z M208.1,20.3c-0.4,0.8-1.1,1.4-1.8,1.9c-0.7,0.4-1.5,0.7-2.4,0.7 c-0.9,0-1.6-0.2-2.4-0.6c-0.8-0.4-1.3-1.1-1.8-1.9c-0.4-0.8-0.7-1.8-0.7-2.8s0.2-2,0.7-2.8c0.4-0.8,1.1-1.4,1.8-1.9 c0.7-0.4,1.5-0.6,2.4-0.6s1.6,0.2,2.4,0.6c0.8,0.4,1.3,1,1.8,1.8c0.4,0.8,0.7,1.7,0.7,2.8S208.6,19.5,208.1,20.3z"></path><path d="M230.1,9.3c-1.2-0.8-2.7-1.2-4.2-1.2c-1.3,0-2.5,0.3-3.6,0.8c-1,0.6-1.9,1.2-2.4,2.1V8.4h-4.6v26.8h4.6V24 c0.6,0.8,1.5,1.5,2.5,2.1c1,0.5,2.2,0.8,3.6,0.8c1.6,0,3-0.4,4.2-1.2c1.2-0.8,2.3-1.9,3-3.3c0.8-1.4,1.1-3.1,1.1-5 c0-1.9-0.4-3.5-1.1-4.9C232.3,11.1,231.4,10,230.1,9.3z M228.8,20.3c-0.4,0.8-1,1.4-1.8,1.9c-0.8,0.4-1.5,0.7-2.4,0.7 c-0.9,0-1.6-0.2-2.4-0.6c-0.8-0.4-1.3-1.1-1.8-1.9c-0.4-0.8-0.7-1.8-0.7-2.8s0.2-2,0.7-2.8c0.4-0.8,1-1.4,1.8-1.9 c0.8-0.4,1.5-0.6,2.4-0.6c0.8,0,1.6,0.2,2.4,0.6c0.8,0.4,1.3,1,1.8,1.8c0.4,0.8,0.7,1.7,0.7,2.8S229.2,19.5,228.8,20.3z"></path><path d="M249.8,9.3c-1.4-0.8-3-1.2-4.8-1.2c-1.7,0-3.3,0.4-4.8,1.2c-1.4,0.8-2.5,1.9-3.4,3.3c-0.8,1.4-1.2,3.1-1.2,4.9 s0.4,3.5,1.2,4.9c0.8,1.4,1.9,2.5,3.3,3.3c1.4,0.8,3,1.2,4.8,1.2c1.8,0,3.4-0.4,4.8-1.2c1.4-0.8,2.6-1.9,3.4-3.3 c0.8-1.4,1.2-3.1,1.2-4.9s-0.4-3.5-1.2-4.9C252.3,11.1,251.2,10,249.8,9.3z M249,20.4c-0.4,0.8-1,1.4-1.8,1.8 c-0.8,0.4-1.5,0.6-2.4,0.6c-1.3,0-2.4-0.5-3.3-1.4c-0.9-0.9-1.3-2.3-1.3-4s0.4-3.1,1.3-4c0.9-0.9,2-1.4,3.3-1.4 c1.3,0,2.4,0.4,3.3,1.4c0.9,0.9,1.4,2.3,1.4,4C249.6,18.6,249.4,19.6,249,20.4z"></path><path d="M260.7,8.4h-4.6v18.2h4.6V8.4z"></path><path d="M258.5,0.8c-0.8,0-1.5,0.3-2,0.8c-0.6,0.5-0.8,1.2-0.8,1.9s0.3,1.4,0.8,1.9c0.5,0.5,1.2,0.8,2,0.8c0.8,0,1.5-0.3,2-0.8 c0.6-0.5,0.8-1.2,0.8-1.9s-0.3-1.4-0.8-1.9C259.9,1.1,259.3,0.8,258.5,0.8z"></path><path d="M273.7,8.1c-1.2,0-2.2,0.2-3.2,0.7c-1,0.4-1.7,1.1-2.4,1.9V8.4h-4.6v18.2h4.6V16.5c0-1.5,0.4-2.6,1.1-3.3 c0.8-0.8,1.7-1.2,3-1.2s2.2,0.4,3,1.2c0.8,0.8,1.1,1.9,1.1,3.3v10.1h4.6V15.9c0-2.4-0.7-4.3-2-5.7C277.7,8.8,275.9,8.1,273.7,8.1z"></path><path d="M289.1,3.9h-4.6v4.5h-2.2v3.8h2.2v8.8c0,3.8,2,5.6,5.8,5.6h2.9v-3.9H291c-0.7,0-1.2-0.1-1.5-0.4c-0.3-0.3-0.4-0.7-0.4-1.3 v-8.8h4.1V8.4h-4.1C289.1,8.4,289.1,3.9,289.1,3.9z"></path><path d="M317.5,8.1c-1.3,0-2.5,0.3-3.7,1c-1.1,0.6-2,1.5-2.6,2.5c-0.6-1.1-1.5-2-2.6-2.6c-1.1-0.6-2.4-0.9-3.8-0.9 c-1.1,0-2.1,0.2-3.1,0.7c-0.9,0.4-1.7,1-2.3,1.8V8.5h-4.6v18.2h4.6V16.5c0-1.4,0.4-2.5,1.1-3.3c0.8-0.8,1.7-1.2,3-1.2s2.2,0.4,3,1.2 c0.7,0.8,1.1,1.9,1.1,3.3v10.1h4.6V16.5c0-1.4,0.4-2.5,1.1-3.3c0.8-0.8,1.7-1.2,3-1.2c1.2,0,2.2,0.4,3,1.2c0.7,0.8,1.1,1.9,1.1,3.3 v10.1h4.6V15.9c0-2.4-0.7-4.3-2-5.7C321.7,8.8,319.8,8.1,317.5,8.1z"></path><path d="M340.4,9.2c-1.4-0.8-2.9-1.1-4.7-1.1c-1.7,0-3.4,0.4-4.8,1.2c-1.4,0.8-2.4,1.9-3.2,3.3s-1.2,3.1-1.2,5s0.4,3.5,1.2,4.9 c0.8,1.4,1.9,2.5,3.2,3.3c1.4,0.8,3,1.2,4.7,1.2c2.2,0,4-0.6,5.5-1.7c1.5-1.1,2.5-2.6,3-4.3h-5c-0.7,1.5-2,2.2-3.6,2.2 c-1.2,0-2.2-0.4-3-1.1c-0.8-0.8-1.3-1.8-1.4-3.1h13.3c0.1-0.5,0.1-1.1,0.1-1.8c0-1.8-0.4-3.3-1.2-4.7C342.7,11,341.7,10,340.4,9.2z  M331.3,15.8c0.2-1.2,0.7-2.2,1.4-2.9c0.8-0.7,1.7-1,2.9-1c1.2,0,2.2,0.4,3.1,1.1c0.8,0.7,1.2,1.6,1.3,2.8H331.3z"></path><path d="M356.5,8.1c-1.2,0-2.2,0.2-3.2,0.7c-1,0.4-1.7,1.1-2.4,1.9V8.4h-4.6v18.2h4.6V16.5c0-1.5,0.4-2.6,1.1-3.3 c0.8-0.8,1.7-1.2,3-1.2s2.2,0.4,3,1.2c0.8,0.8,1.1,1.9,1.1,3.3v10.1h4.6V15.9c0-2.4-0.7-4.3-2-5.7C360.5,8.8,358.7,8.1,356.5,8.1z"></path><path d="M376,12.2V8.4h-4.1V3.9h-4.7v4.5H365v3.8h2.2v8.8c0,3.8,2,5.6,5.8,5.6h2.9v-3.9h-2.1c-0.7,0-1.2-0.1-1.5-0.4 c-0.3-0.3-0.4-0.7-0.4-1.3v-8.8C371.9,12.2,376,12.2,376,12.2z"></path><path d="M11.3,15c0,1.7,1.4,3.1,3.2,3.1h16.4c1.7,0,3.2-1.4,3.2-3.1c0-3.4,2.5-6.2,5.8-6.7V4.8c0-2.2-1.8-4-4-4H9.5 c-2.2,0-4,1.8-4,4v3.5C8.8,8.8,11.3,11.6,11.3,15z"></path><path d="M45.3,15.3c0-2.4-1.9-4.4-4.1-4.6c-1.2,0-2.4,0.4-3.2,1.2c-0.9,0.8-1.3,2-1.3,3.2c0,1.4-0.5,2.8-1.5,3.9 c-1.1,1.1-2.6,1.8-4.2,1.8H14.4c-1.6,0-3.1-0.7-4.2-1.8c-1-1.1-1.6-2.4-1.5-3.9c0-1.2-0.4-2.3-1.3-3.2c-0.9-0.8-2-1.3-3.2-1.2 C1.9,10.8,0,12.8,0,15.2c0,0.5-0.6,11.2,10.8,12.9l-0.1,0.6v0.1l-0.4,3.4c-0.1,0.8,0.4,1.4,1.2,1.5c0,0,0.1,0,0.2,0 c0.7,0,1.2-0.5,1.3-1.2l0.5-3.6v-0.1l0.1-0.6h18.1l0.1,0.6V29l0.5,3.6c0.1,0.7,0.7,1.2,1.3,1.2c0,0,0.1,0,0.2,0 c0.8-0.1,1.2-0.8,1.2-1.5l-0.4-3.4v-0.1l-0.1-0.6C45.9,26.4,45.3,15.7,45.3,15.3z"></path></svg>