<svg xmlns="http://www.w3.org/2000/svg" id="Layer_1" data-name="Layer 1" viewBox="0 0 190.89 24"><defs><style>.cls-1{fill-rule:evenodd;}</style></defs><g id="Page-1"><g id="Test-A"><g id="Top-Nav-section"><g id="Logo"><g id="Cross"><polygon id="Combined-Shape-Copy-10" class="cls-1" points="7.49 15.95 7.49 24 0 19.67 0 11.62 7.49 15.95"></polygon><polygon id="Combined-Shape-Copy-12" class="cls-1" points="7.49 15.95 7.49 24 14.98 19.67 14.98 11.62 7.49 15.95"></polygon><polygon id="Combined-Shape-Copy-13" class="cls-1" points="22.47 15.95 22.47 24 14.98 19.67 14.98 11.62 22.47 15.95"></polygon><polygon id="Combined-Shape-Copy-14" class="cls-1" points="22.47 15.95 22.47 24 29.96 19.67 29.96 11.62 22.47 15.95"></polygon><polygon id="Combined-Shape" class="cls-1" points="10.5 0.37 14.98 2.96 19.46 0.37 10.5 0.37"></polygon><polygon id="Combined-Shape-2" data-name="Combined-Shape" class="cls-1" points="0 2.96 0 11.62 7.49 7.29 0 2.96"></polygon><polygon id="Combined-Shape-Copy-4" class="cls-1" points="29.96 2.96 29.96 11.62 22.47 7.29 29.96 2.96"></polygon></g><g id="PF-horizontal"><path id="Fill-1" class="cls-1" d="M94.18,1.32a1,1,0,1,0,1,1,1,1,0,0,0-1-1Z" transform="translate(0 0)"></path><path id="Fill-3" class="cls-1" d="M160.91,1.32a1,1,0,1,0,1,1,1,1,0,0,0-1-1" transform="translate(0 0)"></path><path id="Fill-5" class="cls-1" d="M150.49,8.35c0-1.41,1.23-2,2.51-2a4.48,4.48,0,0,1,3.17,1.16l.77-1.31a5.31,5.31,0,0,0-3.89-1.38c-2.28,0-4.32,1.23-4.32,3.49,0,4.12,6.81,3.44,6.81,6.2,0,1.34-1.18,2-2.54,2A5.4,5.4,0,0,1,149.24,15l-.93,1.23A6.4,6.4,0,0,0,153,18.1c2.53,0,4.32-1.49,4.32-3.55,0-4.17-6.81-3.41-6.81-6.2" transform="translate(0 0)"></path><polygon id="Fill-7" class="cls-1" points="159.94 17.83 161.63 17.83 161.63 5.19 159.94 5.19 159.94 17.83"></polygon><path id="Fill-9" class="cls-1" d="M143.9,11.21c0,2.74-1.76,5.28-4.65,5.28-2.44,0-2.71-1.76-2.71-3.74V5.19h-1.7v8c0,3.29,1.28,4.85,4.24,4.85a5.34,5.34,0,0,0,5-3.23h.05s0,.54,0,1.09v1.93h1.51V5.19H143.9Z" transform="translate(0 0)"></path><path id="Fill-10" class="cls-1" d="M186.65,4.85A5.44,5.44,0,0,0,181.58,8h-.05a5.8,5.8,0,0,1-.08-1V5.19h-1.51V17.84h1.51v-6.1a6.31,6.31,0,0,1,.28-1.71,4.76,4.76,0,0,1,4.56-3.56c2.44,0,2.71,1.75,2.71,3.74v7.63h1.89V9.76c0-3.12-1.13-4.91-4.24-4.91" transform="translate(0 0)"></path><path id="Fill-11" class="cls-1" d="M171,4.86a6.54,6.54,0,0,0-6.68,6.55,6.68,6.68,0,1,0,13.36,0A6.54,6.54,0,0,0,171,4.86m0,11.7a5,5,0,0,1-4.92-5.15,4.92,4.92,0,1,1,9.84,0A5,5,0,0,1,171,16.56" transform="translate(0 0)"></path><path id="Fill-12" class="cls-1" d="M43,4.58a4.63,4.63,0,0,0-4.41,2.5h-.05s0-.37,0-.92V4.81h-1.7V22.72l1.89-1V16.64a5.87,5.87,0,0,0-.15-1.26h0a4.59,4.59,0,0,0,4.17,2.51c3.3,0,5.7-2.62,5.7-6.64S46.42,4.58,43,4.58m-.33,11.86c-2.63,0-4-2.56-4-5.12,0-3.62,2-5.14,4.12-5.14,2.38,0,4,2,4,5.12s-1.85,5.14-4.1,5.14" transform="translate(0 0)"></path><path id="Fill-13" class="cls-1" d="M116.24,4.86c-3.42,0-6.23,2.49-6.23,6.63a6.39,6.39,0,0,0,6.6,6.61,7.27,7.27,0,0,0,4.68-1.76L120.51,15a5.87,5.87,0,0,1-3.84,1.55,4.75,4.75,0,0,1-4.9-5h9.69s.05-.6.05-.9c0-3.14-1.78-5.85-5.27-5.85Zm-4.4,5.24a4.36,4.36,0,0,1,4.35-3.87c1.88,0,3.49,1.41,3.59,3.87Z" transform="translate(0 0)"></path><path id="Fill-14" class="cls-1" d="M87.09,13V6.7h3V5.38h-3v-4l-1.7,1v3h-1.7V6.7h1.7v6.5c0,4.22,2.93,4.7,4.38,4.7a3.53,3.53,0,0,0,.72-.06V16.31a2.83,2.83,0,0,1-.57.05c-1,0-2.83-.37-2.83-3.34" transform="translate(0 0)"></path><path id="Fill-15" class="cls-1" d="M77.44,16.56a4.9,4.9,0,0,1-5-5.07,4.84,4.84,0,0,1,4.92-5.07A5.33,5.33,0,0,1,81.08,8L82,6.67a6.21,6.21,0,0,0-4.62-1.81,6.45,6.45,0,0,0-6.63,6.63,6.41,6.41,0,0,0,6.63,6.61,6.74,6.74,0,0,0,4.92-2l-.78-1.33a5.56,5.56,0,0,1-4,1.78" transform="translate(0 0)"></path><path id="Fill-16" class="cls-1" d="M52.78,8.4h-.05s0-.45,0-1V5.19H51V17.84h1.7V12.47A8.1,8.1,0,0,1,53.13,10c.55-1.86,1.9-3.27,3.68-3.27a4.8,4.8,0,0,1,.65,0V5.11A3.28,3.28,0,0,0,56.78,5a4.33,4.33,0,0,0-4,3.37" transform="translate(0 0)"></path><path id="Fill-17" class="cls-1" d="M63.9,4.86a7.18,7.18,0,0,0-4.48,1.43l.81,1.31a6,6,0,0,1,3.55-1.21c1.81,0,3.12.83,3.12,3.27v.44h-.66c-2.18,0-7.74,0-7.74,4.31,0,2.51,2.19,3.73,4.3,3.73A4.57,4.57,0,0,0,67,15.38h0a2.86,2.86,0,0,0-.17,1v1.43h1.7V9.71c0-3.17-1.66-4.85-4.7-4.85Zm3,7.08c0,2.19-1.44,4.7-3.85,4.7a2.49,2.49,0,0,1-2.8-2.37c0-2.79,4-2.85,6-2.85h.69Z" transform="translate(0 0)"></path><polygon id="Fill-18" class="cls-1" points="93.13 17.83 95.02 17.83 95.02 5.19 93.13 5.19 93.13 17.83"></polygon><path id="Fill-19" class="cls-1" d="M104,16.56a4.9,4.9,0,0,1-5-5.07,4.84,4.84,0,0,1,4.92-5.07A5.36,5.36,0,0,1,107.6,8l.88-1.28a6.21,6.21,0,0,0-4.62-1.81,6.45,6.45,0,0,0-6.63,6.63,6.41,6.41,0,0,0,6.63,6.61,6.74,6.74,0,0,0,4.92-2L108,14.78a5.56,5.56,0,0,1-4,1.78" transform="translate(0 0)"></path><path id="Fill-20" class="cls-1" d="M127.48,4.7v.68h-1.7V6.7h1.7V17.84h1.7V6.7h3.2V5.38h-3.2V4.7c0-2.81,1.83-3.16,2.81-3.16a3,3,0,0,1,.58.05V.05a4.56,4.56,0,0,0-.75,0c-1.43,0-4.34.53-4.34,4.7" transform="translate(0 0)"></path></g></g></g></g></g></svg>