<svg id="Layer_1" data-name="Layer 1" xmlns="http://www.w3.org/2000/svg" viewBox="0 0 265.92 53.72"><defs><style>.cls-1{fill:#fff;}</style></defs><path class="cls-1" d="M22.54,107.86V54.14H288.46v53.72ZM25.44,55a33,33,0,0,1,9.3,15.52,5.78,5.78,0,0,0,2.4,2.66c5.13,3.41,10.57,6.4,15.41,10.16a14.22,14.22,0,0,1,5.8,11.45c0,4.21-2.54,6.89-5.37,9.51a25.44,25.44,0,0,0,11.75-7.29A14.18,14.18,0,0,0,67.88,83a25.25,25.25,0,0,0-7.27-11.19C50.71,62.42,38.45,58,25.44,55ZM233.76,81.62c-1.11,8.2-2.21,16.3-3.32,24.49h5.84c.72-5,1.43-9.87,2.13-14.75a4.58,4.58,0,0,1,1.25,2.12c1.17,3.71,2.3,7.44,3.53,11.13a2.6,2.6,0,0,0,1.33,1.58c3.36.85,4.58.1,5.57-3.14q.78-2.53,1.57-5.06c.7-2.23,1.41-4.45,2.12-6.68l.56.11q1.08,7.38,2.15,14.72h5.92c-1.14-8.28-2.25-16.39-3.38-24.61-.73,0-1.33-.12-1.93-.13-5.43-.1-5.41-.09-6.93,5.2-1.08,3.76-2.23,7.5-3.35,11.24a85.77,85.77,0,0,1-4-10.79C240.82,80.85,240.8,80.86,233.76,81.62Zm31.52,24.57c4.42,0,8.76.46,13-.12,5.3-.72,8.65-5,9.1-10.27.57-6.64-1.74-11.39-6.7-13.42s-10.18-1.32-15.36-.74ZM36.09,77a53.08,53.08,0,0,1-.9,7.47c-.59,2.26.2,3.22,2,4.42a63.26,63.26,0,0,1,9.53,7.45c2.37,2.33,2,4.54-.16,7l-1.09,1.25A18.93,18.93,0,0,0,50,102.35c5.74-4,6.54-8.52,2.14-13.88A39.66,39.66,0,0,0,36.09,77ZM98,106a3.09,3.09,0,0,0-.09-.88C94.9,97.66,92,90.2,88.83,82.8a2.92,2.92,0,0,0-2.38-1.34A3.44,3.44,0,0,0,83.93,83c-2,4.6-3.79,9.31-5.66,14q-1.8,4.48-3.61,9l.55.65c1-.48,2.71-.84,2.8-1.45.72-4.66,3.93-4.65,7.44-4.38a18.21,18.21,0,0,0,4.24,0c2.71-.42,4.11.72,4.67,3.28C94.76,105.89,95.8,106.8,98,106ZM88.26,70.66c-1.92.2-4,1-5.73.43s-3.17-2.38-4.83-3.49a16.2,16.2,0,0,0-3.54-1.75c-4.62-1.63-9.56-.45-12.29,2.67l8.26,10.56C74.36,72.29,81.51,71.86,88.26,70.66Zm28.24,11c-1.92-.67-2.61-.15-2.55,1.59.08,2.4,0,4.8,0,7.56-5.34-3.66-9.26-3.67-12.18-.42s-3.1,10.34-.12,13.81,6.83,3.39,11.42.39l3.41,2.27V81.66Zm108.22,9c-5.27-3.49-9.21-3.52-12.07-.37s-3.29,9.94-.47,13.34a10,10,0,0,0,4.29,2.85c3,1,5.61-.49,7.35-1.91l3.27,2.22V81.51h-2.37Zm-31.48,7.44h14.48c.18-6.72-4.07-11.1-9.54-10.18-4.28.71-6.68,3.1-7.7,7.63a9.47,9.47,0,0,0,3.65,9.58,10.77,10.77,0,0,0,11.29,0c1.57-1,.9-1.7-.08-2.48-2.79,2.1-5.72,2.82-8.79,1.32A5.78,5.78,0,0,1,193.24,98.15Zm-53.93-6.27.92.18c3.36-2.13,6.7-2.58,8.62-1.07,2.08,1.62,1.6,3.77,1.27,6-4.73-2.67-8.82-2.51-11,.3a6,6,0,0,0,.19,7.36c2.31,2.72,6.16,2.8,10.28.42l3.29,1.51c0-5,.18-9.36-.11-13.67a6.07,6.07,0,0,0-2.3-3.86c-2.65-2-8-1.45-10.42.8C139.55,90.29,139.53,91.19,139.31,91.88ZM170.83,106c0-4.55.11-9.14-.05-13.72-.08-2.25-1.51-4.12-3.8-4-2.75.08-5.49.94-8.13,1.45l-2.64-1.89v18.3c1.78.54,2.41,0,2.36-1.75-.09-3.1,0-6.2,0-9.3,0-2.86,2.17-4.74,5.44-4.8,3.08-.06,4.36,1.21,4.43,4.59q.11,4.77,0,9.56C168.39,106.08,169,106.62,170.83,106Zm16.83-13.78c1.52-1.6,1-2.73-1.58-3.72a9.1,9.1,0,0,0-11.59,4.7c-2.09,4.67-.09,10.89,4.28,12.79a8.73,8.73,0,0,0,9.06-.75c1.4-1,1.48-1.86-.19-2.61-3.86,2.72-7.06,2.69-9.5,0a8.34,8.34,0,0,1-.1-10.3C180.39,89.57,183.94,89.51,187.66,92.19Zm-68.44-3.53c2.37,5.66,4.64,11.21,7,16.7.63,1.46,3.06,1.35,3.71-.17,2.38-5.49,4.64-11,7-16.61-2.55-.33-2.58-.34-3.38,1.6-1.76,4.24-3.48,8.49-5.49,13.4-2-5-3.83-9.19-5.5-13.45C122,88.65,121.28,87.85,119.22,88.66ZM36.16,106.8c8.16-4.41,9.3-5.93,7-9Z" transform="translate(-22.54 -54.14)"/><path d="M25.44,55c13,2.93,25.27,7.38,35.17,16.75A25.25,25.25,0,0,1,67.88,83a14.18,14.18,0,0,1-3.15,14.07A25.44,25.44,0,0,1,53,104.34c2.83-2.62,5.37-5.3,5.37-9.51a14.22,14.22,0,0,0-5.8-11.45c-4.84-3.76-10.28-6.75-15.41-10.16a5.78,5.78,0,0,1-2.4-2.66A33,33,0,0,0,25.44,55Z" transform="translate(-22.54 -54.14)"/><path d="M233.76,81.62c7-.76,7.06-.77,9.07,5.43a85.77,85.77,0,0,0,4,10.79c1.12-3.74,2.27-7.48,3.35-11.24,1.52-5.29,1.5-5.3,6.93-5.2.6,0,1.2.08,1.93.13,1.13,8.22,2.24,16.33,3.38,24.61h-5.92q-1.06-7.33-2.15-14.72l-.56-.11c-.71,2.23-1.42,4.45-2.12,6.68q-.79,2.52-1.57,5.06c-1,3.24-2.21,4-5.57,3.14a2.6,2.6,0,0,1-1.33-1.58c-1.23-3.69-2.36-7.42-3.53-11.13a4.58,4.58,0,0,0-1.25-2.12c-.7,4.88-1.41,9.75-2.13,14.75h-5.84C231.55,97.92,232.65,89.82,233.76,81.62Z" transform="translate(-22.54 -54.14)"/><path d="M265.28,106.19V81.64c5.18-.58,10.34-1.32,15.36.74s7.27,6.78,6.7,13.42c-.45,5.29-3.8,9.55-9.1,10.27C274,106.65,269.7,106.19,265.28,106.19Zm5.89-4.65a36.91,36.91,0,0,0,3.84,0c2.74-.33,4.84-1.62,5.7-4.41,1-3.1,1-6.15-1.4-8.67-1.95-2.06-4.57-2.13-7.16-1.81-.38,0-.93.83-.94,1.28C271.14,92.31,271.17,96.71,271.17,101.54Z" transform="translate(-22.54 -54.14)"/><path d="M36.09,77A39.66,39.66,0,0,1,52.15,88.47c4.4,5.36,3.6,9.92-2.14,13.88a18.93,18.93,0,0,1-4.53,2.31l1.09-1.25c2.16-2.51,2.53-4.72.16-7a63.26,63.26,0,0,0-9.53-7.45c-1.81-1.2-2.6-2.16-2-4.42A53.08,53.08,0,0,0,36.09,77Z" transform="translate(-22.54 -54.14)"/><path d="M98,106c-2.18.8-3.22-.11-3.62-2-.56-2.56-2-3.7-4.67-3.28a18.21,18.21,0,0,1-4.24,0c-3.51-.27-6.72-.28-7.44,4.38-.09.61-1.82,1-2.8,1.45l-.55-.65q1.8-4.48,3.61-9c1.87-4.67,3.65-9.38,5.66-14a3.44,3.44,0,0,1,2.52-1.56,2.92,2.92,0,0,1,2.38,1.34c3.12,7.4,6.07,14.86,9.06,22.32A3.09,3.09,0,0,1,98,106ZM86.47,83.52l-5.7,14.54H92.08Z" transform="translate(-22.54 -54.14)"/><path d="M88.26,70.66c-6.75,1.2-13.9,1.63-18.13,8.42L61.87,68.52c2.73-3.12,7.67-4.3,12.29-2.67A16.2,16.2,0,0,1,77.7,67.6c1.66,1.11,3,3,4.83,3.49S86.34,70.86,88.26,70.66Z" transform="translate(-22.54 -54.14)"/><path d="M116.5,81.66v25.2l-3.41-2.27c-4.59,3-8.55,3-11.42-.39s-2.92-10.42.12-13.81,6.84-3.24,12.18.42c0-2.76.06-5.16,0-7.56C113.89,81.51,114.58,81,116.5,81.66ZM114,97.5c0-5.27-1.55-7.27-5.67-7.29-3.75,0-6.06,2.67-6.08,7.09s2.36,7.36,5.87,7.35C112.22,104.65,114,102.52,114,97.5Z" transform="translate(-22.54 -54.14)"/><path d="M224.72,90.71v-9.2h2.37v25.33l-3.27-2.22c-1.74,1.42-4.33,2.93-7.35,1.91a10,10,0,0,1-4.29-2.85c-2.82-3.4-2.43-10.15.47-13.34S219.45,87.22,224.72,90.71Zm0,6.91c0-5.42-1.59-7.47-5.75-7.41-3.64.05-6.09,3-6,7.24s2.5,7.13,5.87,7.2C222.92,104.73,224.71,102.6,224.71,97.62Z" transform="translate(-22.54 -54.14)"/><path d="M193.24,98.15a5.78,5.78,0,0,0,3.31,5.9c3.07,1.5,6,.78,8.79-1.32,1,.78,1.65,1.44.08,2.48a10.77,10.77,0,0,1-11.29,0,9.47,9.47,0,0,1-3.65-9.58c1-4.53,3.42-6.92,7.7-7.63,5.47-.92,9.72,3.46,9.54,10.18Zm11.94-1.83c-.2-4.13-2.73-6.68-6.09-6.46a5.76,5.76,0,0,0-5.72,6.27,12.79,12.79,0,0,0,1.53.18C198.25,96.33,201.59,96.32,205.18,96.32Z" transform="translate(-22.54 -54.14)"/><path d="M139.31,91.88c.22-.69.24-1.59.7-2,2.45-2.25,7.77-2.78,10.42-.8a6.07,6.07,0,0,1,2.3,3.86c.29,4.31.11,8.64.11,13.67l-3.29-1.51c-4.12,2.38-8,2.3-10.28-.42a6,6,0,0,1-.19-7.36c2.22-2.81,6.31-3,11-.3.33-2.25.81-4.4-1.27-6-1.92-1.51-5.26-1.06-8.62,1.07Zm11.06,9.05c0-2.55-1.89-4.18-4.92-4.24-2.69,0-4.86,1.77-4.92,4.13a4.35,4.35,0,0,0,4.64,4.34C148.37,105.18,150.37,103.55,150.37,100.93Z" transform="translate(-22.54 -54.14)"/><path d="M170.83,106c-1.79.65-2.44.11-2.4-1.61q.09-4.78,0-9.56c-.07-3.38-1.35-4.65-4.43-4.59-3.27.06-5.42,1.94-5.44,4.8,0,3.1-.07,6.2,0,9.3.05,1.71-.58,2.29-2.36,1.75V87.76l2.64,1.89c2.64-.51,5.38-1.37,8.13-1.45,2.29-.07,3.72,1.8,3.8,4C170.94,96.83,170.83,101.42,170.83,106Z" transform="translate(-22.54 -54.14)"/><path d="M187.66,92.19c-3.72-2.68-7.27-2.62-9.62.07a8.34,8.34,0,0,0,.1,10.3c2.44,2.73,5.64,2.76,9.5,0,1.67.75,1.59,1.6.19,2.61a8.73,8.73,0,0,1-9.06.75c-4.37-1.9-6.37-8.12-4.28-12.79a9.1,9.1,0,0,1,11.59-4.7C188.66,89.46,189.18,90.59,187.66,92.19Z" transform="translate(-22.54 -54.14)"/><path d="M119.22,88.66c2.06-.81,2.76,0,3.33,1.47,1.67,4.26,3.46,8.47,5.5,13.45,2-4.91,3.73-9.16,5.49-13.4.8-1.94.83-1.93,3.38-1.6-2.33,5.58-4.59,11.12-7,16.61-.65,1.52-3.08,1.63-3.71.17C123.86,99.87,121.59,94.32,119.22,88.66Z" transform="translate(-22.54 -54.14)"/><path d="M36.16,106.8l7-9C45.46,100.87,44.32,102.39,36.16,106.8Z" transform="translate(-22.54 -54.14)"/><path class="cls-1" d="M271.17,101.54c0-4.83,0-9.23,0-13.63,0-.45.56-1.24.94-1.28,2.59-.32,5.21-.25,7.16,1.81,2.39,2.52,2.35,5.57,1.4,8.67-.86,2.79-3,4.08-5.7,4.41A36.91,36.91,0,0,1,271.17,101.54Z" transform="translate(-22.54 -54.14)"/><path class="cls-1" d="M86.47,83.52l5.61,14.54H80.77Z" transform="translate(-22.54 -54.14)"/><path class="cls-1" d="M114,97.5c0,5-1.74,7.15-5.88,7.15-3.51,0-5.88-3-5.87-7.35s2.33-7.11,6.08-7.09C112.41,90.23,114,92.23,114,97.5Z" transform="translate(-22.54 -54.14)"/><path class="cls-1" d="M224.71,97.62c0,5-1.79,7.11-5.92,7-3.37-.07-5.82-3.08-5.87-7.2s2.4-7.19,6-7.24C223.12,90.15,224.71,92.2,224.71,97.62Z" transform="translate(-22.54 -54.14)"/><path class="cls-1" d="M205.18,96.32c-3.59,0-6.93,0-10.28,0a12.79,12.79,0,0,1-1.53-.18,5.76,5.76,0,0,1,5.72-6.27C202.45,89.64,205,92.19,205.18,96.32Z" transform="translate(-22.54 -54.14)"/><path class="cls-1" d="M150.37,100.93c0,2.62-2,4.25-5.2,4.23a4.35,4.35,0,0,1-4.64-4.34c.06-2.36,2.23-4.18,4.92-4.13C148.48,96.75,150.37,98.38,150.37,100.93Z" transform="translate(-22.54 -54.14)"/></svg>