<svg id="Layer_1" data-name="Layer 1" xmlns="http://www.w3.org/2000/svg" xmlns:xlink="http://www.w3.org/1999/xlink" viewBox="0 0 991.21 147.44"><defs><style>.cls-1{fill:#41273b;}.cls-2{fill:url(#linear-gradient);}.cls-3{fill:url(#linear-gradient-2);}.cls-4{fill:#fff;}.cls-5{fill:none;stroke:#41273b;stroke-miterlimit:10;}</style><linearGradient id="linear-gradient" x1="16.63" y1="90.34" x2="206.9" y2="90.34" gradientUnits="userSpaceOnUse"><stop offset="0" stop-color="#dc6b2f"/><stop offset="0.39" stop-color="#c55434"/><stop offset="1" stop-color="#a4343a"/></linearGradient><linearGradient id="linear-gradient-2" x1="20.48" y1="82.42" x2="206.9" y2="82.42" xlink:href="#linear-gradient"/></defs><title>NGO_Logo_WordMark_RGB</title><path class="cls-1" d="M259.56,65.86,265,71.28c-3.51,2.49-6.11,3.39-9.5,3.39a9.78,9.78,0,0,1-3.84-.67A14.88,14.88,0,0,1,255,83.6a18.27,18.27,0,0,1-8.36,15.49c-2.83,1.8-6.44,2.48-10.51,2.48-7.57,2.72-10.17,4.64-10.17,6.56,0,1.69,1.69,2.71,4.52,2.71h9c6.55,0,10.17.79,13.56,3.17a13.48,13.48,0,0,1,6.22,11.86c0,12.21-8.71,17.75-22.38,17.75-17.63,0-24.41-6.33-24.41-14.36a17,17,0,0,1,1.13-6l9.26-.79a10.41,10.41,0,0,0-1.58,5.09,7.4,7.4,0,0,0,3.28,6.55,23.69,23.69,0,0,0,11.42,2.6c8.7,0,13.67-2.82,13.67-9.83,0-3-1-5.43-3-6.78s-5.54-2-11.08-2c-2.26,0-6.89.12-8.7.12-6.67,0-10.62-3-10.62-8.14,0-4.52,2.48-7.23,10.17-9.61-7.57-2.37-12.66-8.81-12.66-16.27,0-11.3,8.48-19,20.8-19,8.58,0,10.28,3.17,17.17,3.17A12.78,12.78,0,0,0,259.56,65.86Zm-25.2,6.78c-7,0-10.62,3.62-10.62,11.41,0,7.24,3.73,11,10.85,11,6.78,0,10.17-3.73,10.17-11.3S241.82,72.64,234.36,72.64Z" transform="translate(-16.63 -16.62)"/><path class="cls-1" d="M304.65,111.18l3.39,5.65a28.14,28.14,0,0,1-19,7c-15.6,0-25-11.3-25-29.95,0-9.5,2-15.6,6.78-21.25a22.11,22.11,0,0,1,32.1-1.7c4.86,5,6.22,10.29,6.44,23.74v1.24H274.24v1.36c0,5.31.68,9.38,2.6,12.32,3.17,4.86,8.37,6.89,14,6.89A19.38,19.38,0,0,0,304.65,111.18ZM274.24,89.25H300c-.11-6.1-.9-9.83-2.6-12.54-1.92-3-5.87-5-10.17-5C279.22,71.74,274.7,77.61,274.24,89.25Z" transform="translate(-16.63 -16.62)"/><path class="cls-1" d="M312.69,66.89l8.8-1.94a22.78,22.78,0,0,1,2,8.82c5.87-5.88,11.75-8.7,17.74-8.7s11.53,3.28,13.79,8.25a16.25,16.25,0,0,1,1.36,6.55v42.72h-8.93V84.51c0-6-.45-7.46-2-9.38a8.23,8.23,0,0,0-6.21-2.38c-4.52,0-11.53,3.62-15.6,7.91v41.93h-8.59V79.2C315.05,71.17,312.69,66.89,312.69,66.89Z" transform="translate(-16.63 -16.62)"/><path class="cls-1" d="M277.26,152.29v-7.72a2.13,2.13,0,0,0-.37-1.44,1.46,1.46,0,0,0-1.07-.38,3.1,3.1,0,0,0-1.39.38,5.24,5.24,0,0,0-1.35,1v8.15h-2.49V138.77c0-.5,0-1-.06-1.39a5.58,5.58,0,0,0-.17-1.07l2.5-.54a9.69,9.69,0,0,1,.17,1.16c0,.45.05.95.05,1.51v2.42c0,.32,0,.59,0,.83s0,.39,0,.45a5.1,5.1,0,0,1,3.48-1.48,3.45,3.45,0,0,1,1.74.42,2.53,2.53,0,0,1,1,1,3,3,0,0,1,.3.9,9,9,0,0,1,.08,1.33v8Z" transform="translate(-16.63 -16.62)"/><path class="cls-1" d="M285.72,147.28v.18a5.18,5.18,0,0,0,.13,1.17,2.89,2.89,0,0,0,.44,1.05,2.52,2.52,0,0,0,.87.74,3,3,0,0,0,1.37.28,4.25,4.25,0,0,0,2.83-1.13l1,1.51a6.13,6.13,0,0,1-4.08,1.5,5.4,5.4,0,0,1-2.18-.41,4.65,4.65,0,0,1-1.64-1.19,5.35,5.35,0,0,1-1-1.88,7.59,7.59,0,0,1-.37-2.47,8.47,8.47,0,0,1,.33-2.54,5.54,5.54,0,0,1,1.08-1.9A4.36,4.36,0,0,1,286,141a4.75,4.75,0,0,1,1.93-.37,5.2,5.2,0,0,1,1.63.26,4.17,4.17,0,0,1,1.49.91,4,4,0,0,1,1.11,1.82,10.37,10.37,0,0,1,.37,3.12v.51Zm4.22-1.81a3.69,3.69,0,0,0-.55-2.17,1.72,1.72,0,0,0-1.49-.78,1.86,1.86,0,0,0-1.61.78,3.76,3.76,0,0,0-.55,2.17Z" transform="translate(-16.63 -16.62)"/><path class="cls-1" d="M304.16,152.76a2.88,2.88,0,0,1-.93-.59,2.45,2.45,0,0,1-.62-.93,4,4,0,0,1-1.44,1.09,4.53,4.53,0,0,1-1.68.3,3.75,3.75,0,0,1-2.86-1,3.4,3.4,0,0,1-.91-2.44,3.36,3.36,0,0,1,1.44-3,7.32,7.32,0,0,1,4.17-1h.77v-.6a3.28,3.28,0,0,0-.28-1.5c-.19-.33-.62-.5-1.29-.5a3.75,3.75,0,0,0-1.09.17,8.84,8.84,0,0,0-1,.38,5.32,5.32,0,0,0-.8.44l-.48.31-1.1-1.77a11.14,11.14,0,0,1,2.42-1.18,7.6,7.6,0,0,1,2.41-.37c1.8,0,2.95.63,3.46,1.88a3.44,3.44,0,0,1,.11.41,3.69,3.69,0,0,1,.06.54c0,.21,0,.46,0,.76v1.08l-.05,3.25c0,.39,0,.72,0,1a2.35,2.35,0,0,0,.13.69,2.14,2.14,0,0,0,.3.51,2.76,2.76,0,0,0,.53.45ZM302.05,147h-.19l-.26,0a7.42,7.42,0,0,0-1.54.14,2.54,2.54,0,0,0-1,.4,1.46,1.46,0,0,0-.53.68,2.47,2.47,0,0,0-.16.94,1.85,1.85,0,0,0,.42,1.28,1.42,1.42,0,0,0,1.15.47,2.23,2.23,0,0,0,1.13-.32,3.17,3.17,0,0,0,.92-.87Z" transform="translate(-16.63 -16.62)"/><path class="cls-1" d="M312.86,152.27a3.94,3.94,0,0,1-1.48.27,2.41,2.41,0,0,1-1.45-.37,2.29,2.29,0,0,1-.74-.88,2.77,2.77,0,0,1-.27-1c0-.37,0-.67,0-.91v-9.68c0-.39,0-.74,0-1s0-.59,0-.85-.05-.49-.07-.73a5.9,5.9,0,0,0-.1-.7l2.54-.56a6.63,6.63,0,0,1,.17,1.25c0,.5,0,1.12,0,1.87v9.63c0,.39,0,.7,0,.93a3.73,3.73,0,0,0,0,.56,1.81,1.81,0,0,0,.07.34.72.72,0,0,0,.12.21.61.61,0,0,0,.34.23.65.65,0,0,0,.47,0Z" transform="translate(-16.63 -16.62)"/><path class="cls-1" d="M322.09,152.09a5.27,5.27,0,0,1-2.22.49,3.81,3.81,0,0,1-1.4-.22,2.4,2.4,0,0,1-.91-.63,2.47,2.47,0,0,1-.5-.93,3.79,3.79,0,0,1-.16-1.14v-7h-1.26v-1.71h1.26c0-.48,0-1,0-1.44a12.78,12.78,0,0,1,.11-1.42l2.53-.55c-.06.46-.11,1-.14,1.63s-.06,1.21-.06,1.78h2.72l-.65,1.71h-2.09V149a2.46,2.46,0,0,0,.29,1.44,1.29,1.29,0,0,0,1.1.38,3,3,0,0,0,1-.22Z" transform="translate(-16.63 -16.62)"/><path class="cls-1" d="M332.38,152.29v-7.72a2.08,2.08,0,0,0-.37-1.44,1.44,1.44,0,0,0-1.07-.38,3.1,3.1,0,0,0-1.39.38,5.41,5.41,0,0,0-1.35,1v8.15h-2.49V138.77c0-.5,0-1-.06-1.39a6.6,6.6,0,0,0-.16-1.07l2.49-.54a9.69,9.69,0,0,1,.17,1.16c0,.45.05.95.05,1.51v2.42c0,.32,0,.59,0,.83s0,.39,0,.45a5.1,5.1,0,0,1,3.48-1.48,3.45,3.45,0,0,1,1.74.42,2.46,2.46,0,0,1,1,1,3,3,0,0,1,.3.9,7.76,7.76,0,0,1,.08,1.33v8Z" transform="translate(-16.63 -16.62)"/><path class="cls-1" d="M346.64,151.08a4.73,4.73,0,0,1-3.63,1.5,4.38,4.38,0,0,1-3.59-1.53,6.67,6.67,0,0,1-1.24-4.3,7.57,7.57,0,0,1,.43-2.7,5.67,5.67,0,0,1,1.12-1.91,4.42,4.42,0,0,1,1.6-1.13,4.86,4.86,0,0,1,1.86-.37,4.74,4.74,0,0,1,1.66.26,4.32,4.32,0,0,1,1.48,1l-1.24,1.64a2.88,2.88,0,0,0-1.9-.87,1.87,1.87,0,0,0-1.8,1.14,4.59,4.59,0,0,0-.36,1.3,12.8,12.8,0,0,0-.11,1.87,4.68,4.68,0,0,0,.76,3.1,1.94,1.94,0,0,0,1.51.65,3.29,3.29,0,0,0,2.29-1.13Z" transform="translate(-16.63 -16.62)"/><path class="cls-1" d="M357.87,152.76a2.88,2.88,0,0,1-.93-.59,2.45,2.45,0,0,1-.62-.93,4,4,0,0,1-1.44,1.09,4.53,4.53,0,0,1-1.68.3,3.75,3.75,0,0,1-2.86-1,3.4,3.4,0,0,1-.91-2.44,3.36,3.36,0,0,1,1.44-3,7.34,7.34,0,0,1,4.17-1h.77v-.6a3.28,3.28,0,0,0-.28-1.5c-.19-.33-.62-.5-1.29-.5a3.75,3.75,0,0,0-1.09.17,8.84,8.84,0,0,0-1,.38,5.32,5.32,0,0,0-.8.44l-.48.31-1.1-1.77a11.14,11.14,0,0,1,2.42-1.18,7.6,7.6,0,0,1,2.41-.37c1.8,0,2.95.63,3.46,1.88a3.44,3.44,0,0,1,.11.41,3.69,3.69,0,0,1,.06.54c0,.21,0,.46,0,.76v1.08l0,3.25c0,.39,0,.72,0,1a2.35,2.35,0,0,0,.13.69,1.88,1.88,0,0,0,.31.51,2.4,2.4,0,0,0,.52.45ZM355.76,147h-.19l-.26,0a7.42,7.42,0,0,0-1.54.14,2.54,2.54,0,0,0-1,.4,1.46,1.46,0,0,0-.53.68,2.47,2.47,0,0,0-.16.94,1.85,1.85,0,0,0,.42,1.28,1.42,1.42,0,0,0,1.15.47,2.23,2.23,0,0,0,1.13-.32,3.17,3.17,0,0,0,.92-.87Z" transform="translate(-16.63 -16.62)"/><path class="cls-1" d="M368,143.09l-.34-.12a1.28,1.28,0,0,0-.36,0,2.06,2.06,0,0,0-1.37.49,2.35,2.35,0,0,0-.76,1.19v7.68h-2.47v-8a13,13,0,0,0-.11-1.81,8.68,8.68,0,0,0-.32-1.33l2.29-.5a3.73,3.73,0,0,1,.43,1.79,5.43,5.43,0,0,1,1.37-1.38,2.83,2.83,0,0,1,1.53-.43,2,2,0,0,1,.87.18Z" transform="translate(-16.63 -16.62)"/><path class="cls-1" d="M373.32,147.28v.18a5.18,5.18,0,0,0,.13,1.17,2.75,2.75,0,0,0,.45,1.05,2.4,2.4,0,0,0,.86.74,3.06,3.06,0,0,0,1.37.28,4.25,4.25,0,0,0,2.83-1.13l1,1.51a6.17,6.17,0,0,1-4.09,1.5,5.4,5.4,0,0,1-2.18-.41A4.65,4.65,0,0,1,372,151a5.35,5.35,0,0,1-1-1.88,7.59,7.59,0,0,1-.37-2.47,8.47,8.47,0,0,1,.33-2.54,5.54,5.54,0,0,1,1.08-1.9,4.36,4.36,0,0,1,1.55-1.16,4.75,4.75,0,0,1,1.93-.37,5.2,5.2,0,0,1,1.63.26,4.08,4.08,0,0,1,1.49.91,4,4,0,0,1,1.11,1.82,10.37,10.37,0,0,1,.37,3.12v.51Zm4.23-1.81a3.68,3.68,0,0,0-.56-2.17,1.72,1.72,0,0,0-1.49-.78,1.83,1.83,0,0,0-1.6.78,3.69,3.69,0,0,0-.55,2.17Z" transform="translate(-16.63 -16.62)"/><path class="cls-2" d="M67.66,16.62l-51,51.56v95.88H155.87l37.21-37.74h-.41a16.36,16.36,0,0,1-7.35-1.59c-3.95-1.92-5.42-5.53-5.42-11.18V74.9H169.5l4.27-6.66h6.13c0-5.43.9-14.25.9-14.25l9.27-2a151.87,151.87,0,0,0-1.13,16.28h14.13V74.9H188.6v36.28c0,6.22,1.7,8.37,7.23,8.37a12,12,0,0,0,4.66-.74l6.41-6.51V16.62Zm3.08,107.9H61.81V86.43c0-6-.45-7.46-2-9.38a8.26,8.26,0,0,0-6.22-2.37C49,74.68,42,78.3,38,82.59v41.93H29.38V81.12c0-8-2.37-12.31-2.37-12.31l8.81-1.93a22.81,22.81,0,0,1,2,8.82C43.73,69.82,49.61,67,55.6,67s11.52,3.28,13.79,8.25a16.32,16.32,0,0,1,1.35,6.56Zm50.53-26.67H86.12V99.2c0,5.32.67,9.39,2.6,12.32,3.16,4.86,8.36,6.9,14,6.9a19.41,19.41,0,0,0,13.79-5.31l3.39,5.65a28.1,28.1,0,0,1-19,7c-15.59,0-25-11.3-25-29.95,0-9.49,2-15.59,6.78-21.24a21,21,0,0,1,16.84-7.8,20.78,20.78,0,0,1,15.25,6.1c4.86,5,6.22,10.29,6.45,23.74Zm52,26.67H162.5l-15.26-24-15.25,24h-10.4l21-31.19-17.4-25.09h10.85L147.24,87l10.85-18.76h10.29L151.65,93.33Z" transform="translate(-16.63 -16.62)"/><path class="cls-3" d="M99.11,73.66c-8,0-12.54,5.88-13,17.52h25.77c-.12-6.1-.91-9.83-2.6-12.54C107.36,75.58,103.41,73.66,99.11,73.66Z" transform="translate(-16.63 -16.62)"/><path class="cls-4" d="M55.6,67c-6,0-11.87,2.83-17.75,8.71a22.81,22.81,0,0,0-2-8.82L27,68.81s2.37,4.29,2.37,12.31v43.4H38V82.59C42,78.3,49,74.68,53.56,74.68a8.26,8.26,0,0,1,6.22,2.37c1.58,1.92,2,3.39,2,9.38v38.09h8.93V81.8a16.32,16.32,0,0,0-1.35-6.56C67.12,70.27,61.7,67,55.6,67Z" transform="translate(-16.63 -16.62)"/><path class="cls-4" d="M99.57,66.77a21,21,0,0,0-16.84,7.8C78,80.22,76,86.32,76,95.81c0,18.65,9.38,30,25,30a28.1,28.1,0,0,0,19-7l-3.39-5.65a19.41,19.41,0,0,1-13.79,5.31c-5.65,0-10.85-2-14-6.9-1.93-2.93-2.6-7-2.6-12.32V97.85h35.15V96.61c-.23-13.45-1.59-18.77-6.45-23.74A20.78,20.78,0,0,0,99.57,66.77ZM86.12,91.18c.45-11.64,5-17.52,13-17.52,4.3,0,8.25,1.92,10.18,5,1.69,2.71,2.48,6.44,2.6,12.54Z" transform="translate(-16.63 -16.62)"/><polygon class="cls-4" points="151.75 51.62 141.47 51.62 130.62 70.38 119.43 51.62 108.58 51.62 125.98 76.71 104.96 107.9 115.36 107.9 130.62 83.94 145.88 107.9 156.61 107.9 135.03 76.71 151.75 51.62"/><path class="cls-4" d="M188.6,111.18V74.9h14.47V68.24H188.94A151.87,151.87,0,0,1,190.07,52l-9.27,2s-.9,8.82-.9,14.25h-6.13L169.5,74.9h10.4v38.66c0,5.65,1.47,9.26,5.42,11.18a16.36,16.36,0,0,0,7.35,1.59h.41l7.41-7.51a12,12,0,0,1-4.66.74C190.3,119.55,188.6,117.4,188.6,111.18Z" transform="translate(-16.63 -16.62)"/><path class="cls-1" d="M372.37,115.05a5.38,5.38,0,0,0-2.91-2.87,5.49,5.49,0,0,0-4.21,0,5.4,5.4,0,0,0-1.73,1.15,5.25,5.25,0,0,0-1.17,1.72,5.69,5.69,0,0,0,0,4.34,5.29,5.29,0,0,0,1.17,1.73,5.54,5.54,0,0,0,1.73,1.14,5.49,5.49,0,0,0,4.21,0,5.7,5.7,0,0,0,1.74-1.14,5.62,5.62,0,0,0,1.17-1.73,5.57,5.57,0,0,0,0-4.34Zm-.64,4.1a5,5,0,0,1-1,1.55,4.68,4.68,0,0,1-1.51,1,4.55,4.55,0,0,1-1.84.37,4.64,4.64,0,0,1-1.86-.37,4.54,4.54,0,0,1-1.5-1,5,5,0,0,1,0-7,4.51,4.51,0,0,1,1.5-1,4.65,4.65,0,0,1,1.86-.38,4.56,4.56,0,0,1,1.84.38,4.66,4.66,0,0,1,1.51,1,5.11,5.11,0,0,1,1,5.41Z" transform="translate(-16.63 -16.62)"/><path class="cls-1" d="M368.64,118.75q-.13-.23-.27-.42c-.09-.13-.16-.26-.23-.37l-.23-.27a3,3,0,0,0-.32-.27,1.42,1.42,0,0,0,1.07-.4,1.44,1.44,0,0,0,.39-1,1.33,1.33,0,0,0-.15-.67,1.7,1.7,0,0,0-.34-.43,1.31,1.31,0,0,0-.49-.28,2.84,2.84,0,0,0-.82-.1H366v5.37h.53v-2.43h.2a.62.62,0,0,1,.31.07,1.07,1.07,0,0,1,.26.2,4.51,4.51,0,0,1,.47.61l.46.77c.11.18.19.34.25.45s.11.23.17.33h.64Zm-1.45-1.69h-.64v-2.13h.57a2.7,2.7,0,0,1,.54,0,1,1,0,0,1,.35.14,1,1,0,0,1,.49.89,1,1,0,0,1-.32.79A1.5,1.5,0,0,1,367.19,117.06Z" transform="translate(-16.63 -16.62)"/><line class="cls-5" x1="405.73" x2="405.73" y2="147.08"/><path class="cls-1" d="M507.69,122.09l-9.95-22.25q-1.26-2.76-2.47-5.57T493,88.92q-1.1-2.55-1.93-4.65t-1.17-3.18c.11,1.06.2,2.26.25,3.6s.11,2.82.17,4.27.1,2.89.13,4.31,0,2.75,0,4l.33,24.85H479.5V63.94h13L503.59,87.2c1.45,3.13,2.72,6.12,3.81,9s1.94,5.37,2.55,7.48c-.11-1.11-.22-2.38-.33-3.8s-.21-2.87-.29-4.35-.16-2.9-.21-4.27S509,88.71,509,87.7l-.25-23.76h11.13v58.15Z" transform="translate(-16.63 -16.62)"/><path class="cls-1" d="M537.9,104.19v.33c0,3.35.78,5.91,2.34,7.7a8.43,8.43,0,0,0,6.69,2.68,16.94,16.94,0,0,0,10.88-4.27l4.35,6.69A24.92,24.92,0,0,1,546,123.26a21.29,21.29,0,0,1-8.36-1.59,18,18,0,0,1-6.4-4.47,20,20,0,0,1-4.06-7,27.62,27.62,0,0,1-1.42-9.12A33.06,33.06,0,0,1,527,91.3a19.28,19.28,0,0,1,4.1-7.19,17.56,17.56,0,0,1,5.94-4.35,18.69,18.69,0,0,1,7.53-1.43,20.7,20.7,0,0,1,7,1.17A13.74,13.74,0,0,1,557,82.85a18.22,18.22,0,0,1,4.31,7.49,38.82,38.82,0,0,1,1.38,11.25v2.6ZM551,95.49a19.62,19.62,0,0,0-.29-3.85,7.51,7.51,0,0,0-1-2.6,5.58,5.58,0,0,0-4.94-2.51,5.78,5.78,0,0,0-4.94,2.39q-1.76,2.39-1.75,6.9V96h13Z" transform="translate(-16.63 -16.62)"/><path class="cls-1" d="M593.2,122.09l-4.51-7.86c-.17-.34-.44-.83-.8-1.47s-.71-1.29-1-2-.67-1.29-1-1.84a7.11,7.11,0,0,1-.5-1c-.22.5-.7,1.54-1.42,3.1s-1.73,3.26-2.85,5.1l-3.6,5.94H563.08L578.9,99.25,567,81.26,578.65,78c.77,1.34,1.44,2.47,2,3.39s1.05,1.77,1.47,2.55.8,1.52,1.17,2.22.74,1.46,1.13,2.3l1.34,2.84c.11-.33.48-1.22,1.13-2.68s1.52-3.34,2.63-5.68c.34-.73.71-1.45,1.13-2.18s.71-1.23.88-1.51h13.22L592,99l15.4,23.09Z" transform="translate(-16.63 -16.62)"/><path class="cls-1" d="M633.45,121.17a24,24,0,0,1-9.12,1.93,15.25,15.25,0,0,1-7.41-1.72,8.37,8.37,0,0,1-4.14-4.56c-.17-.45-.31-.86-.42-1.25a6.14,6.14,0,0,1-.21-1.26c0-.44,0-1-.08-1.63s0-1.47,0-2.47V87h-4.27v-7.7H612c0-2.12,0-3.93,0-5.43a38.77,38.77,0,0,1,.38-4.69l11.37-2.84q-.33,2.92-.5,6.31t-.16,6.65h10L630.35,87h-7.19v21.5c0,2.74.32,4.56,1,5.48s1.93,1.38,3.89,1.38a7,7,0,0,0,1.63-.2c.59-.14,1.38-.35,2.38-.63Z" transform="translate(-16.63 -16.62)"/><path class="cls-1" d="M683.4,117.57a36.2,36.2,0,0,1-9.33,3.94,39.77,39.77,0,0,1-10,1.25,27.9,27.9,0,0,1-11.42-2.17,21.82,21.82,0,0,1-8.41-6.7,28.13,28.13,0,0,1-4.69-9,38.66,38.66,0,0,1-1.5-11.38q0-18.32,12.13-26.44A22.73,22.73,0,0,1,656.75,64a27.74,27.74,0,0,1,7.57-1,29.34,29.34,0,0,1,10,1.68,26.48,26.48,0,0,1,8.53,5L676.62,77a18.74,18.74,0,0,0-12.13-4.51,11.64,11.64,0,0,0-8.37,2.93,14.37,14.37,0,0,0-3.93,7.53,54.12,54.12,0,0,0-1,11.21q0,12.21,4.36,16.56a12.65,12.65,0,0,0,9.12,3.27,14.22,14.22,0,0,0,6.6-1.43V99.33H662.4l-1.51-9.53H683.4Z" transform="translate(-16.63 -16.62)"/><path class="cls-1" d="M700.55,104.19v.33c0,3.35.78,5.91,2.34,7.7a8.43,8.43,0,0,0,6.69,2.68,16.94,16.94,0,0,0,10.88-4.27l4.35,6.69a24.92,24.92,0,0,1-16.15,5.94,21.29,21.29,0,0,1-8.36-1.59,18,18,0,0,1-6.4-4.47,20,20,0,0,1-4.06-7,27.62,27.62,0,0,1-1.42-9.12,33.06,33.06,0,0,1,1.25-9.79,19.28,19.28,0,0,1,4.1-7.19,17.56,17.56,0,0,1,5.94-4.35,18.69,18.69,0,0,1,7.53-1.43,20.7,20.7,0,0,1,7,1.17,13.85,13.85,0,0,1,5.36,3.35,18.31,18.31,0,0,1,4.3,7.49,38.82,38.82,0,0,1,1.38,11.25v2.6Zm13.13-8.7a19.62,19.62,0,0,0-.29-3.85,7.51,7.51,0,0,0-1-2.6,5.58,5.58,0,0,0-4.94-2.51,5.78,5.78,0,0,0-4.94,2.39q-1.76,2.39-1.75,6.9V96h13Z" transform="translate(-16.63 -16.62)"/><path class="cls-1" d="M756,122.09V94.23c0-2.45-.27-4.11-.8-5a3.21,3.21,0,0,0-3-1.29,8.5,8.5,0,0,0-3.76,1,17.91,17.91,0,0,0-4,2.8v30.29H733.26v-31a36.48,36.48,0,0,0-.37-5.31A27.07,27.07,0,0,0,731.76,81l10-2.84a10.7,10.7,0,0,1,1.59,5.35c.84-.61,1.63-1.17,2.39-1.67a28.69,28.69,0,0,1,2.55-1.51A14.18,14.18,0,0,1,752,79a18.57,18.57,0,0,1,4-.46,12.2,12.2,0,0,1,6.44,1.72,8.65,8.65,0,0,1,3.85,4.47,18.34,18.34,0,0,1,.83,6.11v31.29Z" transform="translate(-16.63 -16.62)"/><path class="cls-1" d="M789.58,73a9.63,9.63,0,0,1-.78,3.87A10.09,10.09,0,0,1,786.69,80a9.91,9.91,0,0,1-3.12,2.1,9.79,9.79,0,0,1-7.61,0,9.87,9.87,0,0,1-5.22-5.23,9.94,9.94,0,0,1,0-7.72A10.15,10.15,0,0,1,772.85,66a9.7,9.7,0,0,1,6.92-2.88,9.56,9.56,0,0,1,3.8.77A9.77,9.77,0,0,1,786.69,66a10.33,10.33,0,0,1,2.11,3.13A9.53,9.53,0,0,1,789.58,73Zm-2.23,0a7.94,7.94,0,0,0-.6-3.08,7.71,7.71,0,0,0-1.63-2.52,7.56,7.56,0,0,0-2.41-1.69,7.39,7.39,0,0,0-5.88,0,7.41,7.41,0,0,0-2.4,1.69,8,8,0,0,0-1.62,2.52,7.94,7.94,0,0,0-.6,3.08,8.19,8.19,0,0,0,2.22,5.64,7.56,7.56,0,0,0,2.4,1.69,7.17,7.17,0,0,0,5.88,0,7.72,7.72,0,0,0,2.41-1.69,7.86,7.86,0,0,0,1.63-2.53A8.13,8.13,0,0,0,787.35,73Zm-5.65,5.47c-.1-.18-.2-.34-.27-.48l-.24-.41-.24-.43c-.08-.15-.17-.32-.28-.51-.27-.5-.49-.91-.69-1.24s-.36-.59-.49-.79a5.43,5.43,0,0,0-.34-.47.85.85,0,0,0-.31-.21.81.81,0,0,0-.34-.08v4.62h-2.18V67.39h4.11a3.21,3.21,0,0,1,2.37.89,3.13,3.13,0,0,1,.89,2.34,3.21,3.21,0,0,1-.2,1.18,3.17,3.17,0,0,1-.53,1,2.74,2.74,0,0,1-.78.66,1.9,1.9,0,0,1-.95.25,3,3,0,0,1,.25.24l.2.24a9.87,9.87,0,0,1,.59.88c.26.4.53.83.8,1.28l.75,1.27.51.87Zm-.37-7.77a1.29,1.29,0,0,0-.79-1.35,5,5,0,0,0-.52-.11,4.12,4.12,0,0,0-.73,0h-.79v3h.74a5.08,5.08,0,0,0,1.09-.08,1.14,1.14,0,0,0,.58-.29A1.5,1.5,0,0,0,781.33,70.68Z" transform="translate(-16.63 -16.62)"/><path class="cls-1" d="M858.72,92.72a40.07,40.07,0,0,1-3.3,17,22.69,22.69,0,0,1-9.66,10.63,22.42,22.42,0,0,1-5.32,2,27.43,27.43,0,0,1-6.31.63A28.16,28.16,0,0,1,823,121.09a19.74,19.74,0,0,1-7.82-6.28q-6.71-8.61-6.7-21.58A37.81,37.81,0,0,1,812,76.66,23.52,23.52,0,0,1,821.66,66a22.47,22.47,0,0,1,5.69-2.13,28.5,28.5,0,0,1,6.36-.71,25.42,25.42,0,0,1,10.41,2,21.67,21.67,0,0,1,7.91,5.9,26.28,26.28,0,0,1,5,9.29A40.88,40.88,0,0,1,858.72,92.72Zm-13.47.34a69.43,69.43,0,0,0-.37-7.78,31.6,31.6,0,0,0-1.13-5.69,12.24,12.24,0,0,0-1.09-2.39,9.47,9.47,0,0,0-2-2.38,11.42,11.42,0,0,0-3-1.84,10.38,10.38,0,0,0-4.1-.75,10.61,10.61,0,0,0-5.35,1.38,9.3,9.3,0,0,0-3.69,3.72q-2.93,5.52-2.92,15.9,0,15.13,5.18,18.82a11.51,11.51,0,0,0,7,2q6.1,0,8.82-4.94T845.25,93.06Z" transform="translate(-16.63 -16.62)"/><path class="cls-1" d="M886.67,69.72A17.45,17.45,0,0,0,884,68.54a7.06,7.06,0,0,0-1.88-.25,4.63,4.63,0,0,0-3.43,1.26,4.91,4.91,0,0,0-1.25,3.6v6.1h10.87L885.42,87h-7.95v35.14h-11V87h-3.85v-7.7h4.1c-.11-.89-.21-1.85-.29-2.88s-.13-2-.13-3q0-6.36,3.6-9.83t10.21-3.48a20.05,20.05,0,0,1,5.14.63,22.17,22.17,0,0,1,5,2.05Z" transform="translate(-16.63 -16.62)"/><path class="cls-1" d="M913.11,69.72a18.31,18.31,0,0,0-2.72-1.18,7.12,7.12,0,0,0-1.88-.25,4.61,4.61,0,0,0-3.43,1.26,4.87,4.87,0,0,0-1.26,3.6v6.1H914.7L911.85,87h-7.94v35.14h-11V87H889.1v-7.7h4.1c-.12-.89-.21-1.85-.3-2.88s-.12-2-.12-3q0-6.36,3.59-9.83t10.21-3.48a20.13,20.13,0,0,1,5.15.63,22.17,22.17,0,0,1,5,2.05Z" transform="translate(-16.63 -16.62)"/><path class="cls-1" d="M931.93,67.46A6.86,6.86,0,0,1,925,74.4a6.62,6.62,0,0,1-4.86-2,7,7,0,0,1,0-9.87,6.86,6.86,0,0,1,5-2,6.46,6.46,0,0,1,4.81,2A6.79,6.79,0,0,1,931.93,67.46Zm-12.55,54.63V80l11.21-1.76v43.84Z" transform="translate(-16.63 -16.62)"/><path class="cls-1" d="M969.17,117.24c-.84.84-1.51,1.46-2,1.88a13.5,13.5,0,0,1-1.92,1.3,19,19,0,0,1-4.81,2,22.62,22.62,0,0,1-5.65.67q-8.87,0-13.76-5.82T936.12,101a26.94,26.94,0,0,1,2.51-12.34,19.85,19.85,0,0,1,6.28-7.49,19.3,19.3,0,0,1,5.06-2.3,18.92,18.92,0,0,1,5.56-.88,19.55,19.55,0,0,1,4.35.5,17,17,0,0,1,3.94,1.42,21.25,21.25,0,0,1,2,1.26c.53.39,1.27,1,2.22,1.76l-5.44,7.36a14.56,14.56,0,0,0-3.43-2.47,7.45,7.45,0,0,0-3.35-.88,5.82,5.82,0,0,0-5.52,3.39q-1.75,3.39-1.76,11a33.41,33.41,0,0,0,.55,6.82,9.76,9.76,0,0,0,1.63,4,6.1,6.1,0,0,0,5,2.43q3.67,0,7.7-3.51l.67-.59Z" transform="translate(-16.63 -16.62)"/><path class="cls-1" d="M983.07,104.19v.33c0,3.35.78,5.91,2.34,7.7a8.43,8.43,0,0,0,6.69,2.68,17,17,0,0,0,10.88-4.27l4.35,6.69a24.94,24.94,0,0,1-16.15,5.94,21.26,21.26,0,0,1-8.36-1.59,18.15,18.15,0,0,1-6.41-4.47,19.94,19.94,0,0,1-4-7,27.61,27.61,0,0,1-1.43-9.12,33,33,0,0,1,1.26-9.79,19.28,19.28,0,0,1,4.1-7.19,17.37,17.37,0,0,1,5.94-4.35,18.66,18.66,0,0,1,7.53-1.43,20.7,20.7,0,0,1,7,1.17,13.81,13.81,0,0,1,5.35,3.35,18.33,18.33,0,0,1,4.31,7.49,38.82,38.82,0,0,1,1.38,11.25v2.6Zm13.13-8.7a20.43,20.43,0,0,0-.29-3.85,7.53,7.53,0,0,0-1-2.6,5.55,5.55,0,0,0-4.93-2.51A5.78,5.78,0,0,0,985,88.92q-1.75,2.39-1.76,6.9V96h13Z" transform="translate(-16.63 -16.62)"/></svg>